<?xml version="1.0" standalone="no"?>
<!DOCTYPE svg PUBLIC "-//W3C//DTD SVG 20010904//EN"
 "http://www.w3.org/TR/2001/REC-SVG-20010904/DTD/svg10.dtd">
<svg version="1.0" xmlns="http://www.w3.org/2000/svg"
 width="460.000000pt" height="460.000000pt" viewBox="0 0 460.000000 460.000000"
 preserveAspectRatio="xMidYMid meet">
<metadata>
Created by potrace 1.14, written by Peter Selinger 2001-2017
</metadata>
<g transform="translate(0.000000,460.000000) scale(0.100000,-0.100000)"
fill="#000000" stroke="none">
<path d="M0 2300 l0 -2300 2300 0 2300 0 0 2300 0 2300 -2300 0 -2300 0 0
-2300z m1490 906 c63 -14 131 -31 150 -36 36 -10 209 -25 415 -35 66 -4 309
-8 540 -10 322 -3 439 -7 500 -19 44 -9 97 -17 118 -19 66 -7 66 -6 123 -332
9 -49 18 -107 21 -128 3 -20 9 -40 14 -43 14 -8 10 -40 -7 -55 -9 -7 -13 -21
-10 -35 4 -13 0 -27 -10 -35 -13 -11 -15 -27 -9 -96 4 -46 3 -83 -2 -83 -5 0
-9 -102 -9 -227 -1 -218 -2 -234 -32 -372 -18 -80 -38 -152 -45 -160 -7 -9
-22 -36 -33 -61 -21 -51 -34 -68 -119 -156 -190 -199 -289 -294 -307 -294 -5
0 -7 -4 -4 -9 3 -5 -3 -11 -14 -14 -11 -3 -20 -12 -20 -21 0 -9 -5 -16 -10
-16 -6 0 -36 -25 -67 -55 -31 -30 -58 -55 -60 -55 -7 0 -68 -45 -75 -55 -26
-35 -349 -54 -508 -29 -47 7 -108 13 -136 14 -28 0 -59 6 -70 15 -10 8 -26 15
-34 15 -23 0 -105 75 -147 134 -20 28 -48 61 -61 73 -12 13 -20 23 -17 23 4 0
-24 31 -62 69 -37 38 -72 76 -78 84 -5 8 -32 47 -60 86 -79 114 -115 177 -115
202 0 5 -4 9 -8 9 -11 0 -48 108 -72 213 -21 90 -28 279 -12 305 7 10 18 8 53
-7 26 -11 88 -23 154 -29 129 -12 234 1 305 37 66 35 131 109 174 198 34 69
39 75 47 56 5 -13 13 -23 19 -23 7 0 7 6 0 21 -7 13 -9 40 -5 72 8 61 24 97
25 57 1 -22 2 -23 11 -7 6 9 14 15 20 12 5 -4 9 5 9 19 0 14 5 28 10 31 6 3
10 12 10 18 0 7 -4 6 -10 -3 -8 -12 -10 -8 -11 15 -1 29 -2 29 -15 -10 l-13
-40 6 55 c6 60 22 86 79 131 28 22 47 29 80 29 58 0 81 -10 135 -61 45 -43 47
-46 53 -119 22 -245 133 -426 293 -481 129 -45 401 -26 503 33 75 45 140 143
140 213 0 13 5 27 10 30 6 4 10 12 8 18 -1 7 1 35 5 62 4 28 10 73 13 100 4
37 13 58 35 81 29 30 29 31 17 83 -8 38 -18 55 -32 61 -58 21 -95 33 -131 43
-27 7 -58 28 -95 67 -30 31 -77 69 -105 85 -49 30 -52 30 -200 30 -132 -1
-158 -3 -215 -24 -36 -13 -78 -35 -93 -49 -25 -24 -26 -27 -10 -34 10 -3 106
-7 213 -7 107 0 209 -5 225 -10 25 -8 19 -9 -40 -10 -113 -2 -285 -20 -350
-38 -73 -20 -147 -64 -165 -98 -7 -14 -17 -25 -21 -25 -4 0 -25 16 -46 36 -45
42 -93 64 -138 64 -44 0 -114 -31 -144 -64 -31 -33 -42 -33 -68 3 -46 61 -160
98 -333 108 -178 9 -127 25 102 31 114 3 188 9 188 15 0 5 -12 20 -27 33 -73
63 -313 90 -400 45 -42 -21 -103 -75 -120 -106 -5 -9 -27 -17 -53 -19 -24 -3
-39 -1 -33 2 6 4 11 45 12 91 1 47 6 92 12 102 5 10 9 28 9 41 0 18 -2 20 -10
8 -8 -13 -10 -13 -10 1 0 9 7 19 15 23 10 4 15 19 15 49 0 67 71 217 94 199 6
-5 63 -21 126 -36z m1592 -537 c96 -30 111 -54 116 -181 3 -68 1 -98 -7 -98
-6 0 -11 4 -11 9 0 13 -25 20 -39 11 -10 -5 -5 -24 18 -73 36 -77 36 -75 12
-148 -26 -78 -39 -95 -98 -134 -65 -44 -161 -65 -295 -65 -149 0 -241 34 -310
115 -58 68 -128 280 -128 388 0 98 36 137 164 172 100 28 174 34 346 30 133
-3 178 -8 232 -26z m-1390 1 c166 -37 203 -70 195 -172 -3 -31 -9 -63 -13 -70
-5 -7 -7 -22 -5 -33 2 -13 -8 -7 -30 22 -20 24 -61 55 -99 74 -62 33 -69 34
-170 33 -111 -1 -177 -17 -237 -57 -31 -20 -42 -45 -27 -60 4 -3 24 3 46 14
21 11 69 23 105 26 l66 6 -34 -37 c-35 -38 -60 -117 -51 -163 7 -36 94 -58
234 -58 65 0 118 -1 118 -3 0 -8 -39 -62 -70 -95 -72 -79 -187 -108 -352 -89
-106 12 -169 36 -211 80 -28 29 -28 31 -12 55 9 14 15 34 14 44 -1 10 5 36 15
58 10 22 17 54 16 70 -1 17 -1 74 0 129 1 85 -1 98 -14 93 -13 -5 -16 2 -16
38 0 25 -5 45 -11 45 -20 0 2 20 39 36 57 24 115 32 270 33 110 1 163 -4 234
-19z m1535 -132 c-3 -7 -5 -2 -5 12 0 14 2 19 5 13 2 -7 2 -19 0 -25z m-910
-10 c-3 -7 -5 -2 -5 12 0 14 2 19 5 13 2 -7 2 -19 0 -25z m-400 -20 c-3 -7 -5
-2 -5 12 0 14 2 19 5 13 2 -7 2 -19 0 -25z m1460 -20 c-3 -7 -5 -2 -5 12 0 14
2 19 5 13 2 -7 2 -19 0 -25z m-2310 -35 c-3 -10 -5 -4 -5 12 0 17 2 24 5 18 2
-7 2 -21 0 -30z m1250 15 c-3 -8 -6 -5 -6 6 -1 11 2 17 5 13 3 -3 4 -12 1 -19z
m1043 -53 c0 -25 -4 -45 -10 -45 -11 0 -14 49 -4 74 10 26 14 18 14 -29z
m-1764 -40 c8 -31 -10 -55 -41 -55 -31 0 -49 24 -41 55 5 21 12 25 41 25 29 0
36 -4 41 -25z m244 -19 c10 -19 10 -31 -1 -62 l-13 -39 -7 52 c-4 29 -9 59
-12 67 -9 24 19 8 33 -18z m-800 -78 c0 -7 3 -31 7 -53 6 -36 5 -39 -10 -27
-9 8 -21 11 -27 7 -5 -3 -10 -1 -10 5 0 6 -5 8 -11 4 -8 -4 -9 1 -4 17 13 43
55 78 55 47z m27 -10 c-3 -8 -6 -5 -6 6 -1 11 2 17 5 13 3 -3 4 -12 1 -19z
m2649 -17 c42 -41 74 -131 74 -206 0 -131 -110 -433 -186 -507 -46 -47 -81
-49 -125 -10 -29 26 -30 30 -20 67 5 22 15 81 22 130 6 50 15 95 20 101 5 6 7
33 5 60 -2 27 -1 51 3 54 3 3 13 19 23 35 9 17 27 36 40 42 12 7 19 13 14 13
-17 0 28 42 82 77 36 22 52 39 50 51 -7 38 -80 19 -129 -35 -38 -41 -79 -117
-80 -150 -2 -24 -2 -24 -6 -5 -2 12 -9 20 -14 16 -11 -6 -5 218 6 236 3 5 12
7 19 4 8 -3 20 3 27 13 24 32 63 52 100 52 30 1 44 -7 75 -38z m-2596 -44 c0
-68 -21 -49 -28 25 -5 48 -4 52 11 39 12 -9 17 -29 17 -64z m-43 1 c-3 -8 -6
-5 -6 6 -1 11 2 17 5 13 3 -3 4 -12 1 -19z m-67 -99 c3 -3 13 -8 23 -12 9 -4
20 -15 24 -24 9 -22 23 -37 44 -45 22 -8 30 -60 21 -128 -6 -51 -9 -55 -35
-58 l-29 -3 4 -80 c2 -43 0 -79 -3 -79 -4 0 -9 -9 -12 -20 -5 -18 -8 -19 -30
-9 -39 18 -47 51 -52 203 -3 77 -7 162 -11 188 -3 26 -3 61 1 78 7 31 7 31 28
13 12 -10 24 -21 27 -24z m99 -391 c0 -10 -3 -18 -9 -18 -5 0 -9 21 -9 48 1
42 2 44 9 17 4 -16 8 -38 9 -47z m5 -100 c5 -47 3 -58 -9 -58 -11 0 -13 10
-10 48 2 26 4 53 5 61 1 29 7 4 14 -51z"/>
<path d="M3341 2614 c0 -11 3 -14 6 -6 3 7 2 16 -1 19 -3 4 -6 -2 -5 -13z"/>
<path d="M3361 2554 c0 -11 3 -14 6 -6 3 7 2 16 -1 19 -3 4 -6 -2 -5 -13z"/>
<path d="M1901 1951 c-34 -80 -24 -158 27 -204 53 -48 198 -62 281 -27 57 25
101 86 101 140 0 62 -15 68 -39 16 -17 -40 -28 -50 -76 -71 -64 -29 -121 -31
-185 -9 -89 31 -115 81 -81 159 15 34 17 45 7 45 -8 0 -23 -22 -35 -49z"/>
<path d="M1160 1980 c0 -5 5 -10 11 -10 5 0 7 5 4 10 -3 6 -8 10 -11 10 -2 0
-4 -4 -4 -10z"/>
<path d="M1630 1576 c0 -24 38 -97 62 -119 54 -50 74 -60 97 -48 11 6 82 12
158 12 l138 2 -144 8 c-105 6 -148 12 -159 22 -12 13 -11 16 9 22 13 4 26 11
29 15 3 3 46 3 95 -2 50 -4 196 -7 325 -6 220 1 237 0 267 -19 33 -20 33 -20
10 -31 -13 -7 -81 -13 -162 -15 l-140 -3 150 -2 c108 -2 146 -5 135 -13 -11
-8 -9 -9 10 -3 62 17 159 129 133 155 -4 4 -69 3 -143 -2 -155 -12 -333 -14
-470 -6 -52 3 -95 6 -95 7 0 1 -45 4 -100 6 -55 3 -116 10 -135 15 -36 9 -70
12 -70 5z"/>
<path d="M1794 1385 c11 -8 25 -15 30 -15 6 0 2 7 -8 15 -11 8 -25 15 -30 15
-6 0 -2 -7 8 -15z"/>
<path d="M1860 1357 c14 -6 28 -15 31 -20 4 -5 17 -6 30 -2 21 7 19 9 -21 21
-54 17 -74 17 -40 1z"/>
<path d="M2370 1350 c-8 -5 -10 -10 -5 -10 6 0 17 5 25 10 8 5 11 10 5 10 -5
0 -17 -5 -25 -10z"/>
<path d="M1963 1333 c9 -2 23 -2 30 0 6 3 -1 5 -18 5 -16 0 -22 -2 -12 -5z"/>
<path d="M2308 1333 c7 -3 16 -2 19 1 4 3 -2 6 -13 5 -11 0 -14 -3 -6 -6z"/>
<path d="M2033 1323 c9 -2 23 -2 30 0 6 3 -1 5 -18 5 -16 0 -22 -2 -12 -5z"/>
<path d="M2105 1320 c45 -11 85 -11 85 0 0 6 -25 9 -57 9 -48 -1 -53 -3 -28
-9z"/>
<path d="M2268 1323 c7 -3 16 -2 19 1 4 3 -2 6 -13 5 -11 0 -14 -3 -6 -6z"/>
<path d="M2655 2521 c-54 -9 -132 -55 -175 -101 -40 -43 -60 -100 -59 -162 0
-39 1 -41 11 -18 49 118 62 135 133 177 22 13 57 18 39 5 -20 -14 -52 -78 -59
-118 -3 -23 -1 -60 5 -83 10 -39 13 -41 48 -41 108 1 225 21 287 50 58 27 65
33 65 60 0 40 -15 76 -52 123 l-32 39 55 -7 c30 -4 76 -16 102 -28 41 -17 50
-18 58 -6 14 22 13 23 -64 61 -100 50 -242 69 -362 49z m43 -133 c26 -26 7
-78 -28 -78 -9 0 -25 9 -35 20 -37 41 24 97 63 58z"/>
<path d="M1857 2509 c4 -13 8 -18 11 -10 2 7 -1 18 -6 23 -8 8 -9 4 -5 -13z"/>
<path d="M1836 2428 c3 -5 10 -6 15 -3 13 9 11 12 -6 12 -8 0 -12 -4 -9 -9z"/>
<path d="M3547 1799 c7 -7 15 -10 18 -7 3 3 -2 9 -12 12 -14 6 -15 5 -6 -5z"/>
<path d="M3516 1598 c-4 -20 0 -38 12 -53 21 -30 32 -31 39 -5 3 11 9 20 14
20 23 0 5 37 -25 51 l-34 16 -6 -29z"/>
</g>
</svg>
